<?xml version="1.0" encoding="UTF-8" standalone="no"?>
<svg 
   width="115.919998pt"
   height="113.040001pt"
   viewBox="0 0 115.919998 113.040001"
   version="1.1"
   id="svg66"
   xmlns="http://www.w3.org/2000/svg"
   xmlns:svg="http://www.w3.org/2000/svg" content="%3Cmxfile%20host%3D%22app.diagrams.net%22%20modified%3D%222023-05-20T02%3A25%3A03.368Z%22%20agent%3D%22Mozilla%2F5.0%20(Macintosh%3B%20Intel%20Mac%20OS%20X%2010_15_7)%20AppleWebKit%2F605.1.15%20(KHTML%2C%20like%20Gecko)%20Version%2F16.1%20Safari%2F605.1.15%22%20etag%3D%223GzmNaymllR-3ZdhIQ_K%22%20version%3D%2221.2.3%22%20type%3D%22google%22%3E%20%20%20%3Cdiagram%20name%3D%22Page-1%22%20id%3D%22XZZ9e3tILP9jeeUBP867%22%3E%20%20%20%20%20%3CmxGraphModel%20dx%3D%22279%22%20dy%3D%22210%22%20grid%3D%221%22%20gridSize%3D%2210%22%20guides%3D%220%22%20tooltips%3D%221%22%20connect%3D%221%22%20arrows%3D%221%22%20fold%3D%221%22%20page%3D%220%22%20pageScale%3D%221%22%20pageWidth%3D%221200%22%20pageHeight%3D%221920%22%20math%3D%220%22%20shadow%3D%220%22%3E%20%20%20%20%20%20%20%3Croot%3E%20%20%20%20%20%20%20%20%20%3CmxCell%20id%3D%220%22%20%2F%3E%20%20%20%20%20%20%20%20%20%3CmxCell%20id%3D%221%22%20parent%3D%220%22%20%2F%3E%20%20%20%20%20%20%20%20%20%3CmxCell%20id%3D%22ihWeFazDB3AQXq9bglHK-28%22%20value%3D%22%22%20style%3D%22endArrow%3Dnone%3Bhtml%3D1%3Brounded%3D0%3BexitX%3D0%3BexitY%3D1%3BexitDx%3D0%3BexitDy%3D0%3BentryX%3D0.258%3BentryY%3D0.75%3BentryDx%3D0%3BentryDy%3D0%3BentryPerimeter%3D0%3BstrokeWidth%3D3%3B%22%20edge%3D%221%22%20parent%3D%221%22%20source%3D%22ihWeFazDB3AQXq9bglHK-3%22%20target%3D%22ihWeFazDB3AQXq9bglHK-1%22%3E%20%20%20%20%20%20%20%20%20%20%20%3CmxGeometry%20width%3D%2250%22%20height%3D%2250%22%20relative%3D%221%22%20as%3D%22geometry%22%3E%20%20%20%20%20%20%20%20%20%20%20%20%20%3CmxPoint%20x%3D%22193.84615384615387%22%20y%3D%22190.9800212923183%22%20as%3D%22sourcePoint%22%20%2F%3E%20%20%20%20%20%20%20%20%20%20%20%20%20%3CmxPoint%20x%3D%22274.61538461538464%22%20y%3D%22176.88201916308648%22%20as%3D%22targetPoint%22%20%2F%3E%20%20%20%20%20%20%20%20%20%20%20%3C%2FmxGeometry%3E%20%20%20%20%20%20%20%20%20%3C%2FmxCell%3E%20%20%20%20%20%20%20%20%20%3CmxCell%20id%3D%22ihWeFazDB3AQXq9bglHK-21%22%20value%3D%22%22%20style%3D%22endArrow%3Dnone%3Bhtml%3D1%3Brounded%3D0%3BexitX%3D1%3BexitY%3D1%3BexitDx%3D0%3BexitDy%3D0%3BentryX%3D0%3BentryY%3D0%3BentryDx%3D0%3BentryDy%3D0%3BstrokeWidth%3D3%3B%22%20edge%3D%221%22%20parent%3D%221%22%20source%3D%22ihWeFazDB3AQXq9bglHK-4%22%20target%3D%22ihWeFazDB3AQXq9bglHK-7%22%3E%20%20%20%20%20%20%20%20%20%20%20%3CmxGeometry%20width%3D%2250%22%20height%3D%2250%22%20relative%3D%221%22%20as%3D%22geometry%22%3E%20%20%20%20%20%20%20%20%20%20%20%20%20%3CmxPoint%20x%3D%22193.84615384615387%22%20y%3D%22190.9800212923183%22%20as%3D%22sourcePoint%22%20%2F%3E%20%20%20%20%20%20%20%20%20%20%20%20%20%3CmxPoint%20x%3D%22251.53846153846155%22%20y%3D%22120.49001064615915%22%20as%3D%22targetPoint%22%20%2F%3E%20%20%20%20%20%20%20%20%20%20%20%3C%2FmxGeometry%3E%20%20%20%20%20%20%20%20%20%3C%2FmxCell%3E%20%20%20%20%20%20%20%20%20%3CmxCell%20id%3D%22ihWeFazDB3AQXq9bglHK-13%22%20value%3D%22%22%20style%3D%22endArrow%3Dnone%3Bhtml%3D1%3Brounded%3D0%3BexitX%3D1%3BexitY%3D0.5%3BexitDx%3D0%3BexitDy%3D0%3BentryX%3D0.061%3BentryY%3D0.5%3BentryDx%3D0%3BentryDy%3D0%3BentryPerimeter%3D0%3BstrokeWidth%3D3%3Bmovable%3D1%3Bresizable%3D1%3Brotatable%3D1%3Bdeletable%3D1%3Beditable%3D1%3Blocked%3D0%3Bconnectable%3D1%3B%22%20edge%3D%221%22%20parent%3D%221%22%20source%3D%22ihWeFazDB3AQXq9bglHK-4%22%20target%3D%22ihWeFazDB3AQXq9bglHK-1%22%3E%20%20%20%20%20%20%20%20%20%20%20%3CmxGeometry%20width%3D%2250%22%20height%3D%2250%22%20relative%3D%221%22%20as%3D%22geometry%22%3E%20%20%20%20%20%20%20%20%20%20%20%20%20%3CmxPoint%20x%3D%22172.68592316365226%22%20y%3D%22190.9800212923183%22%20as%3D%22sourcePoint%22%20%2F%3E%20%20%20%20%20%20%20%20%20%20%20%20%20%3CmxPoint%20x%3D%22114.99361547134458%22%20y%3D%22120.49001064615915%22%20as%3D%22targetPoint%22%20%2F%3E%20%20%20%20%20%20%20%20%20%20%20%3C%2FmxGeometry%3E%20%20%20%20%20%20%20%20%20%3C%2FmxCell%3E%20%20%20%20%20%20%20%20%20%3CmxCell%20id%3D%22ihWeFazDB3AQXq9bglHK-33%22%20style%3D%22rounded%3D0%3BorthogonalLoop%3D1%3BjettySize%3Dauto%3Bhtml%3D1%3BexitX%3D0%3BexitY%3D0%3BexitDx%3D0%3BexitDy%3D0%3BentryX%3D1%3BentryY%3D1%3BentryDx%3D0%3BentryDy%3D0%3BendArrow%3Dnone%3BendFill%3D0%3BstrokeWidth%3D3%3B%22%20edge%3D%221%22%20parent%3D%221%22%20source%3D%22ihWeFazDB3AQXq9bglHK-7%22%20target%3D%22ihWeFazDB3AQXq9bglHK-3%22%3E%20%20%20%20%20%20%20%20%20%20%20%3CmxGeometry%20relative%3D%221%22%20as%3D%22geometry%22%20%2F%3E%20%20%20%20%20%20%20%20%20%3C%2FmxCell%3E%20%20%20%20%20%20%20%20%20%3CmxCell%20id%3D%22ihWeFazDB3AQXq9bglHK-25%22%20value%3D%22%22%20style%3D%22endArrow%3Dnone%3Bhtml%3D1%3Brounded%3D0%3BexitX%3D1%3BexitY%3D1%3BexitDx%3D0%3BexitDy%3D0%3BentryX%3D0%3BentryY%3D0%3BentryDx%3D0%3BentryDy%3D0%3BstrokeWidth%3D3%3B%22%20edge%3D%221%22%20parent%3D%221%22%20source%3D%22ihWeFazDB3AQXq9bglHK-3%22%20target%3D%22ihWeFazDB3AQXq9bglHK-6%22%3E%20%20%20%20%20%20%20%20%20%20%20%3CmxGeometry%20width%3D%2250%22%20height%3D%2250%22%20relative%3D%221%22%20as%3D%22geometry%22%3E%20%20%20%20%20%20%20%20%20%20%20%20%20%3CmxPoint%20x%3D%22170.76923076923077%22%20y%3D%22198.02902235693423%22%20as%3D%22sourcePoint%22%20%2F%3E%20%20%20%20%20%20%20%20%20%20%20%20%20%3CmxPoint%20x%3D%22233.07692307692307%22%20y%3D%22144.45661426585326%22%20as%3D%22targetPoint%22%20%2F%3E%20%20%20%20%20%20%20%20%20%20%20%3C%2FmxGeometry%3E%20%20%20%20%20%20%20%20%20%3C%2FmxCell%3E%20%20%20%20%20%20%20%20%20%3CmxCell%20id%3D%22ihWeFazDB3AQXq9bglHK-31%22%20value%3D%22%22%20style%3D%22endArrow%3Dnone%3Bhtml%3D1%3Brounded%3D0%3BentryX%3D0.5%3BentryY%3D1%3BentryDx%3D0%3BentryDy%3D0%3BexitX%3D0.5%3BexitY%3D0%3BexitDx%3D0%3BexitDy%3D0%3BstrokeWidth%3D3%3B%22%20edge%3D%221%22%20parent%3D%221%22%20source%3D%22ihWeFazDB3AQXq9bglHK-3%22%20target%3D%22ihWeFazDB3AQXq9bglHK-4%22%3E%20%20%20%20%20%20%20%20%20%20%20%3CmxGeometry%20width%3D%2250%22%20height%3D%2250%22%20relative%3D%221%22%20as%3D%22geometry%22%3E%20%20%20%20%20%20%20%20%20%20%20%20%20%3CmxPoint%20x%3D%22136.15384615384616%22%20y%3D%22226.2250266153979%22%20as%3D%22sourcePoint%22%20%2F%3E%20%20%20%20%20%20%20%20%20%20%20%20%20%3CmxPoint%20x%3D%22193.84615384615387%22%20y%3D%22155.73501596923873%22%20as%3D%22targetPoint%22%20%2F%3E%20%20%20%20%20%20%20%20%20%20%20%3C%2FmxGeometry%3E%20%20%20%20%20%20%20%20%20%3C%2FmxCell%3E%20%20%20%20%20%20%20%20%20%3CmxCell%20id%3D%22ihWeFazDB3AQXq9bglHK-20%22%20value%3D%22%22%20style%3D%22endArrow%3Dnone%3Bhtml%3D1%3Brounded%3D0%3BexitX%3D0%3BexitY%3D0.5%3BexitDx%3D0%3BexitDy%3D0%3BentryX%3D0%3BentryY%3D0.5%3BentryDx%3D0%3BentryDy%3D0%3BstrokeWidth%3D3%3B%22%20edge%3D%221%22%20parent%3D%221%22%20source%3D%22ihWeFazDB3AQXq9bglHK-5%22%20target%3D%22ihWeFazDB3AQXq9bglHK-7%22%3E%20%20%20%20%20%20%20%20%20%20%20%3CmxGeometry%20width%3D%2250%22%20height%3D%2250%22%20relative%3D%221%22%20as%3D%22geometry%22%3E%20%20%20%20%20%20%20%20%20%20%20%20%20%3CmxPoint%20x%3D%22193.84615384615387%22%20y%3D%22190.9800212923183%22%20as%3D%22sourcePoint%22%20%2F%3E%20%20%20%20%20%20%20%20%20%20%20%20%20%3CmxPoint%20x%3D%22251.53846153846155%22%20y%3D%22120.49001064615915%22%20as%3D%22targetPoint%22%20%2F%3E%20%20%20%20%20%20%20%20%20%20%20%3C%2FmxGeometry%3E%20%20%20%20%20%20%20%20%20%3C%2FmxCell%3E%20%20%20%20%20%20%20%20%20%3CmxCell%20id%3D%22ihWeFazDB3AQXq9bglHK-27%22%20value%3D%22%22%20style%3D%22endArrow%3Dnone%3Bhtml%3D1%3Brounded%3D0%3BexitX%3D0%3BexitY%3D0%3BexitDx%3D0%3BexitDy%3D0%3BentryX%3D0.083%3BentryY%3D0.167%3BentryDx%3D0%3BentryDy%3D0%3BentryPerimeter%3D0%3BstrokeWidth%3D3%3B%22%20edge%3D%221%22%20parent%3D%221%22%20source%3D%22ihWeFazDB3AQXq9bglHK-5%22%20target%3D%22ihWeFazDB3AQXq9bglHK-1%22%3E%20%20%20%20%20%20%20%20%20%20%20%3CmxGeometry%20width%3D%2250%22%20height%3D%2250%22%20relative%3D%221%22%20as%3D%22geometry%22%3E%20%20%20%20%20%20%20%20%20%20%20%20%20%3CmxPoint%20x%3D%22193.84615384615387%22%20y%3D%22190.9800212923183%22%20as%3D%22sourcePoint%22%20%2F%3E%20%20%20%20%20%20%20%20%20%20%20%20%20%3CmxPoint%20x%3D%22228.46153846153848%22%20y%3D%22106.39200851692732%22%20as%3D%22targetPoint%22%20%2F%3E%20%20%20%20%20%20%20%20%20%20%20%3C%2FmxGeometry%3E%20%20%20%20%20%20%20%20%20%3C%2FmxCell%3E%20%20%20%20%20%20%20%20%20%3CmxCell%20id%3D%22ihWeFazDB3AQXq9bglHK-32%22%20style%3D%22rounded%3D0%3BorthogonalLoop%3D1%3BjettySize%3Dauto%3Bhtml%3D1%3BexitX%3D0%3BexitY%3D1%3BexitDx%3D0%3BexitDy%3D0%3BentryX%3D0%3BentryY%3D1%3BentryDx%3D0%3BentryDy%3D0%3BendArrow%3Dnone%3BendFill%3D0%3BstrokeWidth%3D3%3B%22%20edge%3D%221%22%20parent%3D%221%22%20source%3D%22ihWeFazDB3AQXq9bglHK-6%22%20target%3D%22ihWeFazDB3AQXq9bglHK-5%22%3E%20%20%20%20%20%20%20%20%20%20%20%3CmxGeometry%20relative%3D%221%22%20as%3D%22geometry%22%20%2F%3E%20%20%20%20%20%20%20%20%20%3C%2FmxCell%3E%20%20%20%20%20%20%20%20%20%3CmxCell%20id%3D%22ihWeFazDB3AQXq9bglHK-7%22%20value%3D%22%22%20style%3D%22ellipse%3BwhiteSpace%3Dwrap%3Bhtml%3D1%3Baspect%3Dfixed%3BstrokeWidth%3D3%3B%22%20vertex%3D%221%22%20parent%3D%221%22%3E%20%20%20%20%20%20%20%20%20%20%20%3CmxGeometry%20x%3D%2290%22%20y%3D%2278.19600425846366%22%20width%3D%2222.906120570639672%22%20height%3D%2222.906120570639672%22%20as%3D%22geometry%22%20%2F%3E%20%20%20%20%20%20%20%20%20%3C%2FmxCell%3E%20%20%20%20%20%20%20%20%20%3CmxCell%20id%3D%22ihWeFazDB3AQXq9bglHK-6%22%20value%3D%22%22%20style%3D%22ellipse%3BwhiteSpace%3Dwrap%3Bhtml%3D1%3Baspect%3Dfixed%3BstrokeWidth%3D3%3B%22%20vertex%3D%221%22%20parent%3D%221%22%3E%20%20%20%20%20%20%20%20%20%20%20%3CmxGeometry%20x%3D%2290%22%20y%3D%22132.68478248794466%22%20width%3D%2222.906120570639672%22%20height%3D%2222.906120570639672%22%20as%3D%22geometry%22%20%2F%3E%20%20%20%20%20%20%20%20%20%3C%2FmxCell%3E%20%20%20%20%20%20%20%20%20%3CmxCell%20id%3D%22ihWeFazDB3AQXq9bglHK-4%22%20value%3D%22%22%20style%3D%22ellipse%3BwhiteSpace%3Dwrap%3Bhtml%3D1%3Baspect%3Dfixed%3BstrokeWidth%3D3%3B%22%20vertex%3D%221%22%20parent%3D%221%22%3E%20%20%20%20%20%20%20%20%20%20%20%3CmxGeometry%20x%3D%22136.15384615384616%22%20y%3D%2299.34300745231141%22%20width%3D%2234.35918085595951%22%20height%3D%2234.35918085595951%22%20as%3D%22geometry%22%20%2F%3E%20%20%20%20%20%20%20%20%20%3C%2FmxCell%3E%20%20%20%20%20%20%20%20%20%3CmxCell%20id%3D%22ihWeFazDB3AQXq9bglHK-3%22%20value%3D%22%22%20style%3D%22ellipse%3BwhiteSpace%3Dwrap%3Bhtml%3D1%3Baspect%3Dfixed%3BstrokeWidth%3D3%3B%22%20vertex%3D%221%22%20parent%3D%221%22%3E%20%20%20%20%20%20%20%20%20%20%20%3CmxGeometry%20x%3D%22136.15384615384616%22%20y%3D%22157.7059936123045%22%20width%3D%2234.35918085595951%22%20height%3D%2234.35918085595951%22%20as%3D%22geometry%22%20%2F%3E%20%20%20%20%20%20%20%20%20%3C%2FmxCell%3E%20%20%20%20%20%20%20%20%20%3CmxCell%20id%3D%22ihWeFazDB3AQXq9bglHK-5%22%20value%3D%22%22%20style%3D%22ellipse%3BwhiteSpace%3Dwrap%3Bhtml%3D1%3Baspect%3Dfixed%3BstrokeWidth%3D3%3B%22%20vertex%3D%221%22%20parent%3D%221%22%3E%20%20%20%20%20%20%20%20%20%20%20%3CmxGeometry%20x%3D%22136.15384615384616%22%20y%3D%2250%22%20width%3D%2234.35918085595951%22%20height%3D%2234.35918085595951%22%20as%3D%22geometry%22%20%2F%3E%20%20%20%20%20%20%20%20%20%3C%2FmxCell%3E%20%20%20%20%20%20%20%20%20%3CmxCell%20id%3D%22ihWeFazDB3AQXq9bglHK-1%22%20value%3D%22%22%20style%3D%22html%3D1%3BverticalLabelPosition%3Dbottom%3Balign%3Dcenter%3BlabelBackgroundColor%3D%23ffffff%3BverticalAlign%3Dtop%3BstrokeWidth%3D3%3BstrokeColor%3D%230080F0%3Bshadow%3D0%3Bdashed%3D0%3Bshape%3Dmxgraph.ios7.icons.heart%3BfillStyle%3Dauto%3BfillColor%3Dnone%3B%22%20vertex%3D%221%22%20parent%3D%221%22%3E%20%20%20%20%20%20%20%20%20%20%20%3CmxGeometry%20x%3D%22193.85%22%20y%3D%2294%22%20width%3D%2246.15%22%20height%3D%2245%22%20as%3D%22geometry%22%20%2F%3E%20%20%20%20%20%20%20%20%20%3C%2FmxCell%3E%20%20%20%20%20%20%20%3C%2Froot%3E%20%20%20%20%20%3C%2FmxGraphModel%3E%20%20%20%3C%2Fdiagram%3E%20%3C%2Fmxfile%3E%20">
  <defs
     id="defs20">
    <clipPath
       id="clip-0">
      <path
         clip-rule="nonzero"
         d="M 8 28 L 115.921875 28 L 115.921875 110.761719 L 8 110.761719 Z M 8 28 "
         id="path2" />
    </clipPath>
    <clipPath
       id="clip-1">
      <path
         clip-rule="nonzero"
         d="M 0 0 L 91 0 L 91 110.761719 L 0 110.761719 Z M 0 0 "
         id="path5" />
    </clipPath>
    <clipPath
       id="clip-2">
      <path
         clip-rule="nonzero"
         d="M 0 34 L 91 34 L 91 110.761719 L 0 110.761719 Z M 0 34 "
         id="path8" />
    </clipPath>
    <clipPath
       id="clip-3">
      <path
         clip-rule="nonzero"
         d="M 0 0 L 72 0 L 72 110.761719 L 0 110.761719 Z M 0 0 "
         id="path11" />
    </clipPath>
    <clipPath
       id="clip-4">
      <path
         clip-rule="nonzero"
         d="M 23 69 L 75 69 L 75 110.761719 L 23 110.761719 Z M 23 69 "
         id="path14" />
    </clipPath>
    <clipPath
       id="clip-5">
      <path
         clip-rule="nonzero"
         d="M 48 4 L 115.921875 4 L 115.921875 101 L 48 101 Z M 48 4 "
         id="path17" />
    </clipPath>
  </defs>
  <g
     clip-path="url(#clip-0)"
     id="g24">
    <path
       fill="none"
       stroke-width="3"
       stroke-linecap="butt"
       stroke-linejoin="miter"
       stroke="#000000"
       stroke-opacity="1"
       stroke-miterlimit="10"
       d="M 53.188379,139.02924 117.75954,79.750712"
       transform="matrix(0.748387,0,0,0.748387,0.374194,0.374194)"
       id="path22" />
  </g>
  <path
     fill="none"
     stroke-width="3"
     stroke-linecap="butt"
     stroke-linejoin="miter"
     stroke="rgb(0%, 0%, 0%)"
     stroke-opacity="1"
     stroke-miterlimit="10"
     d="M 77.480204 80.669355 L 5.351125 33.5524 "
     transform="matrix(0.748387, 0, 0, 0.748387, 0.374194, 0.374194)"
     id="path26" />
  <path
     fill="none"
     stroke-width="3"
     stroke-linecap="butt"
     stroke-linejoin="miter"
     stroke="rgb(0%, 0%, 0%)"
     stroke-opacity="1"
     stroke-miterlimit="10"
     d="M 82.511859 68.518222 L 108.672286 68.502564 "
     transform="matrix(0.748387, 0, 0, 0.748387, 0.374194, 0.374194)"
     id="path28" />
  <g
     clip-path="url(#clip-1)"
     id="g32">
    <path
       fill="none"
       stroke-width="3"
       stroke-linecap="butt"
       stroke-linejoin="miter"
       stroke="#000000"
       stroke-opacity="1"
       stroke-miterlimit="10"
       d="M 5.351125,33.5524 77.480204,139.02924"
       transform="matrix(0.748387,0,0,0.748387,0.374194,0.374194)"
       id="path30" />
  </g>
  <g
     clip-path="url(#clip-2)"
     id="g36">
    <path
       fill="none"
       stroke-width="3"
       stroke-linecap="butt"
       stroke-linejoin="miter"
       stroke="#000000"
       stroke-opacity="1"
       stroke-miterlimit="10"
       d="M 77.480204,139.02924 5.351125,88.039371"
       transform="matrix(0.748387,0,0,0.748387,0.374194,0.374194)"
       id="path34" />
  </g>
  <path
     fill="none"
     stroke-width="3"
     stroke-linecap="butt"
     stroke-linejoin="miter"
     stroke="rgb(0%, 0%, 0%)"
     stroke-opacity="1"
     stroke-miterlimit="10"
     d="M 65.329072 109.710978 L 65.329072 85.701009 "
     transform="matrix(0.748387, 0, 0, 0.748387, 0.374194, 0.374194)"
     id="path38" />
  <path
     fill="none"
     stroke-width="3"
     stroke-linecap="butt"
     stroke-linejoin="miter"
     stroke="rgb(0%, 0%, 0%)"
     stroke-opacity="1"
     stroke-miterlimit="10"
     d="M 48.151505 19.177736 L 2.000169 41.647935 "
     transform="matrix(0.748387, 0, 0, 0.748387, 0.374194, 0.374194)"
     id="path40" />
  <path
     fill="none"
     stroke-width="3"
     stroke-linecap="butt"
     stroke-linejoin="miter"
     stroke="rgb(0%, 0%, 0%)"
     stroke-opacity="1"
     stroke-miterlimit="10"
     d="M 53.188379 7.031823 L 109.679661 53.522431 "
     transform="matrix(0.748387, 0, 0, 0.748387, 0.374194, 0.374194)"
     id="path42" />
  <g
     clip-path="url(#clip-3)"
     id="g46">
    <path
       fill="none"
       stroke-width="3"
       stroke-linecap="butt"
       stroke-linejoin="miter"
       stroke="#000000"
       stroke-opacity="1"
       stroke-miterlimit="10"
       d="M 5.351125,104.24088 53.188379,31.328868"
       transform="matrix(0.748387,0,0,0.748387,0.374194,0.374194)"
       id="path44" />
  </g>
  <path
     fill-rule="nonzero"
     fill="rgb(100%, 100%, 100%)"
     fill-opacity="1"
     stroke-width="3"
     stroke-linecap="butt"
     stroke-linejoin="miter"
     stroke="rgb(0%, 0%, 0%)"
     stroke-opacity="1"
     stroke-miterlimit="4"
     d="M 24.903591 41.647935 C 24.903591 42.399552 24.830518 43.145948 24.68437 43.881906 C 24.538222 44.623083 24.319001 45.338163 24.031925 46.032364 C 23.744849 46.726566 23.389919 47.389449 22.972355 48.010577 C 22.55479 48.636924 22.07981 49.216295 21.547415 49.74869 C 21.01502 50.281085 20.435649 50.756065 19.814522 51.173629 C 19.188175 51.591194 18.525291 51.940904 17.83109 52.2332 C 17.136888 52.520275 16.421809 52.734277 15.685851 52.880425 C 14.944674 53.031792 14.203496 53.104866 13.45188 53.104866 C 12.700264 53.104866 11.953867 53.031792 11.217909 52.880425 C 10.476732 52.734277 9.761652 52.520275 9.067451 52.2332 C 8.373249 51.940904 7.710366 51.591194 7.089238 51.173629 C 6.462891 50.756065 5.88352 50.281085 5.351125 49.74869 C 4.81873 49.216295 4.34375 48.636924 3.926186 48.010577 C 3.508621 47.389449 3.158911 46.726566 2.866615 46.032364 C 2.57954 45.338163 2.365538 44.623083 2.21939 43.881906 C 2.068023 43.145948 1.994949 42.399552 1.994949 41.647935 C 1.994949 40.896319 2.068023 40.155141 2.21939 39.413964 C 2.365538 38.678006 2.57954 37.962927 2.866615 37.268725 C 3.158911 36.574524 3.508621 35.91164 3.926186 35.285293 C 4.34375 34.664166 4.81873 34.084795 5.351125 33.5524 C 5.88352 33.020005 6.462891 32.545025 7.089238 32.12746 C 7.710366 31.709896 8.373249 31.354966 9.067451 31.06789 C 9.761652 30.780814 10.476732 30.561593 11.217909 30.415445 C 11.953867 30.269298 12.700264 30.196224 13.45188 30.196224 C 14.203496 30.196224 14.944674 30.269298 15.685851 30.415445 C 16.421809 30.561593 17.136888 30.780814 17.83109 31.06789 C 18.525291 31.354966 19.188175 31.709896 19.814522 32.12746 C 20.435649 32.545025 21.01502 33.020005 21.547415 33.5524 C 22.07981 34.084795 22.55479 34.664166 22.972355 35.285293 C 23.389919 35.91164 23.744849 36.574524 24.031925 37.268725 C 24.319001 37.962927 24.538222 38.678006 24.68437 39.413964 C 24.830518 40.155141 24.903591 40.896319 24.903591 41.647935 Z M 24.903591 41.647935 "
     transform="matrix(0.748387, 0, 0, 0.748387, 0.374194, 0.374194)"
     id="path48" />
  <path
     fill-rule="nonzero"
     fill="rgb(100%, 100%, 100%)"
     fill-opacity="1"
     stroke-width="3"
     stroke-linecap="butt"
     stroke-linejoin="miter"
     stroke="rgb(0%, 0%, 0%)"
     stroke-opacity="1"
     stroke-miterlimit="4"
     d="M 24.903591 96.140126 C 24.903591 96.891743 24.830518 97.638139 24.68437 98.374097 C 24.538222 99.110055 24.319001 99.830354 24.031925 100.524555 C 23.744849 101.218757 23.389919 101.876421 22.972355 102.502768 C 22.55479 103.129115 22.07981 103.708486 21.547415 104.240881 C 21.01502 104.768056 20.435649 105.243036 19.814522 105.660601 C 19.188175 106.078166 18.525291 106.433095 17.83109 106.720171 C 17.136888 107.007247 16.421809 107.226468 15.685851 107.372616 C 14.944674 107.518764 14.203496 107.591837 13.45188 107.591837 C 12.700264 107.591837 11.953867 107.518764 11.217909 107.372616 C 10.476732 107.226468 9.761652 107.007247 9.067451 106.720171 C 8.373249 106.433095 7.710366 106.078166 7.089238 105.660601 C 6.462891 105.243036 5.88352 104.768056 5.351125 104.240881 C 4.81873 103.708486 4.34375 103.129115 3.926186 102.502768 C 3.508621 101.876421 3.158911 101.218757 2.866615 100.524555 C 2.57954 99.830354 2.365538 99.110055 2.21939 98.374097 C 2.068023 97.638139 1.994949 96.891743 1.994949 96.140126 C 1.994949 95.38851 2.068023 94.642113 2.21939 93.906155 C 2.365538 93.170197 2.57954 92.449898 2.866615 91.755697 C 3.158911 91.061496 3.508621 90.403831 3.926186 89.777484 C 4.34375 89.151137 4.81873 88.571766 5.351125 88.039371 C 5.88352 87.512196 6.462891 87.037216 7.089238 86.619651 C 7.710366 86.196867 8.373249 85.847157 9.067451 85.560081 C 9.761652 85.273005 10.476732 85.053784 11.217909 84.907636 C 11.953867 84.761488 12.700264 84.688415 13.45188 84.688415 C 14.203496 84.688415 14.944674 84.761488 15.685851 84.907636 C 16.421809 85.053784 17.136888 85.273005 17.83109 85.560081 C 18.525291 85.847157 19.188175 86.196867 19.814522 86.619651 C 20.435649 87.037216 21.01502 87.512196 21.547415 88.039371 C 22.07981 88.571766 22.55479 89.151137 22.972355 89.777484 C 23.389919 90.403831 23.744849 91.061496 24.031925 91.755697 C 24.319001 92.449898 24.538222 93.170197 24.68437 93.906155 C 24.830518 94.642113 24.903591 95.38851 24.903591 96.140126 Z M 24.903591 96.140126 "
     transform="matrix(0.748387, 0, 0, 0.748387, 0.374194, 0.374194)"
     id="path50" />
  <path
     fill-rule="nonzero"
     fill="rgb(100%, 100%, 100%)"
     fill-opacity="1"
     stroke-width="3"
     stroke-linecap="butt"
     stroke-linejoin="miter"
     stroke="rgb(0%, 0%, 0%)"
     stroke-opacity="1"
     stroke-miterlimit="4"
     d="M 82.511859 68.518222 C 82.511859 69.645647 82.397028 70.762633 82.177807 71.869179 C 81.958586 72.975725 81.634973 74.050954 81.20175 75.094866 C 80.768526 76.138778 80.241351 77.125274 79.615004 78.064795 C 78.988657 79.004315 78.273577 79.870762 77.480204 80.669355 C 76.681612 81.467947 75.809946 82.177807 74.875645 82.804154 C 73.936124 83.430501 72.944408 83.957676 71.905716 84.3909 C 70.861804 84.824123 69.786575 85.147736 68.680029 85.366957 C 67.573482 85.591398 66.456497 85.701009 65.329072 85.701009 C 64.201647 85.701009 63.084662 85.591398 61.978116 85.366957 C 60.871569 85.147736 59.79634 84.824123 58.757648 84.3909 C 57.713736 83.957676 56.72202 83.430501 55.787719 82.804154 C 54.848199 82.177807 53.981752 81.467947 53.183159 80.669355 C 52.384567 79.870762 51.674707 79.004315 51.04314 78.064795 C 50.416793 77.125274 49.889618 76.138778 49.456395 75.094866 C 49.028391 74.050954 48.699559 72.975725 48.480337 71.869179 C 48.261116 70.762633 48.151505 69.645647 48.151505 68.518222 C 48.151505 67.390798 48.261116 66.273812 48.480337 65.167266 C 48.699559 64.060719 49.028391 62.98549 49.456395 61.946798 C 49.889618 60.902886 50.416793 59.91117 51.04314 58.976869 C 51.674707 58.037349 52.384567 57.170902 53.183159 56.37231 C 53.981752 55.573717 54.848199 54.863857 55.787719 54.23751 C 56.72202 53.611163 57.713736 53.078768 58.757648 52.645545 C 59.79634 52.217541 60.871569 51.888709 61.978116 51.669487 C 63.084662 51.450266 64.201647 51.340655 65.329072 51.340655 C 66.456497 51.340655 67.573482 51.450266 68.680029 51.669487 C 69.786575 51.888709 70.861804 52.217541 71.905716 52.645545 C 72.944408 53.078768 73.936124 53.611163 74.875645 54.23751 C 75.809946 54.863857 76.681612 55.573717 77.480204 56.37231 C 78.273577 57.170902 78.988657 58.037349 79.615004 58.976869 C 80.241351 59.91117 80.768526 60.902886 81.20175 61.946798 C 81.634973 62.98549 81.958586 64.060719 82.177807 65.167266 C 82.397028 66.273812 82.511859 67.390798 82.511859 68.518222 Z M 82.511859 68.518222 "
     transform="matrix(0.748387, 0, 0, 0.748387, 0.374194, 0.374194)"
     id="path52" />
  <path
     fill-rule="nonzero"
     fill="rgb(100%, 100%, 100%)"
     fill-opacity="1"
     d="M 62.125 95.335938 C 62.125 96.179688 62.039063 97.015625 61.875 97.84375 C 61.710938 98.671875 61.46875 99.476563 61.144531 100.257813 C 60.820313 101.035156 60.425781 101.777344 59.957031 102.480469 C 59.488281 103.183594 58.953125 103.832031 58.359375 104.429688 C 57.761719 105.023438 57.109375 105.558594 56.410156 106.027344 C 55.707031 106.496094 54.964844 106.890625 54.1875 107.214844 C 53.40625 107.539063 52.601563 107.78125 51.773438 107.945313 C 50.945313 108.113281 50.109375 108.195313 49.265625 108.195313 C 48.421875 108.195313 47.585938 108.113281 46.757813 107.945313 C 45.929688 107.78125 45.125 107.539063 44.347656 107.214844 C 43.566406 106.890625 42.824219 106.496094 42.125 106.027344 C 41.421875 105.558594 40.773438 105.023438 40.175781 104.429688 C 39.578125 103.832031 39.046875 103.183594 38.574219 102.480469 C 38.105469 101.777344 37.710938 101.035156 37.386719 100.257813 C 37.066406 99.476563 36.820313 98.671875 36.65625 97.84375 C 36.492188 97.015625 36.410156 96.179688 36.410156 95.335938 C 36.410156 94.492188 36.492188 93.65625 36.65625 92.828125 C 36.820313 92 37.066406 91.195313 37.386719 90.417969 C 37.710938 89.636719 38.105469 88.894531 38.574219 88.195313 C 39.046875 87.492188 39.578125 86.84375 40.175781 86.246094 C 40.773438 85.648438 41.421875 85.117188 42.125 84.648438 C 42.824219 84.179688 43.566406 83.78125 44.347656 83.457031 C 45.125 83.136719 45.929688 82.890625 46.757813 82.726563 C 47.585938 82.5625 48.421875 82.480469 49.265625 82.480469 C 50.109375 82.480469 50.945313 82.5625 51.773438 82.726563 C 52.601563 82.890625 53.40625 83.136719 54.1875 83.457031 C 54.964844 83.78125 55.707031 84.179688 56.410156 84.648438 C 57.109375 85.117188 57.761719 85.648438 58.359375 86.246094 C 58.953125 86.84375 59.488281 87.492188 59.957031 88.195313 C 60.425781 88.894531 60.820313 89.636719 61.144531 90.417969 C 61.46875 91.195313 61.710938 92 61.875 92.828125 C 62.039063 93.65625 62.125 94.492188 62.125 95.335938 Z M 62.125 95.335938 "
     id="path54" />
  <g
     clip-path="url(#clip-4)"
     id="g58">
    <path
       fill="none"
       stroke-width="3"
       stroke-linecap="butt"
       stroke-linejoin="miter"
       stroke="#000000"
       stroke-opacity="1"
       stroke-miterlimit="4"
       d="m 82.511859,126.88854 c 0,1.12743 -0.114831,2.24442 -0.334052,3.35096 -0.219221,1.10655 -0.542834,2.18178 -0.976057,3.22569 -0.433224,1.03869 -0.960399,2.03041 -1.586746,2.96993 -0.626347,0.93952 -1.341427,1.80596 -2.1348,2.60456 -0.798592,0.79337 -1.670258,1.50845 -2.604559,2.1348 -0.939521,0.62634 -1.931237,1.15352 -2.969929,1.58674 -1.043912,0.43323 -2.119141,0.75684 -3.225687,0.97606 -1.106547,0.22444 -2.223532,0.33405 -3.350957,0.33405 -1.127425,0 -2.24441,-0.10961 -3.350956,-0.33405 -1.106547,-0.21922 -2.181776,-0.54283 -3.220468,-0.97606 -1.043912,-0.43322 -2.035628,-0.9604 -2.969929,-1.58674 -0.93952,-0.62635 -1.805967,-1.34143 -2.60456,-2.1348 -0.798592,-0.7986 -1.508452,-1.66504 -2.140019,-2.60456 -0.626347,-0.93952 -1.153522,-1.93124 -1.586745,-2.96993 -0.428004,-1.04391 -0.756836,-2.11914 -0.976058,-3.22569 -0.219221,-1.10654 -0.328832,-2.22353 -0.328832,-3.35096 0,-1.12742 0.109611,-2.2444 0.328832,-3.35095 0.219222,-1.10655 0.548054,-2.18178 0.976058,-3.22047 0.433223,-1.04391 0.960398,-2.03563 1.586745,-2.96993 0.631567,-0.93952 1.341427,-1.80597 2.140019,-2.60456 0.798593,-0.79859 1.66504,-1.50845 2.60456,-2.1348 0.934301,-0.62634 1.926017,-1.15874 2.969929,-1.59196 1.038692,-0.42801 2.113921,-0.75684 3.220468,-0.97606 1.106546,-0.21922 2.223531,-0.32883 3.350956,-0.32883 1.127425,0 2.24441,0.10961 3.350957,0.32883 1.106546,0.21922 2.181775,0.54805 3.225687,0.97606 1.038692,0.43322 2.030408,0.96562 2.969929,1.59196 0.934301,0.62635 1.805967,1.33621 2.604559,2.1348 0.793373,0.79859 1.508453,1.66504 2.1348,2.60456 0.626347,0.9343 1.153522,1.92602 1.586746,2.96993 0.433223,1.03869 0.756836,2.11392 0.976057,3.22047 0.219221,1.10655 0.334052,2.22353 0.334052,3.35095 z m 0,0"
       transform="matrix(0.748387,0,0,0.748387,0.374194,0.374194)"
       id="path56" />
  </g>
  <path
     fill-rule="nonzero"
     fill="rgb(100%, 100%, 100%)"
     fill-opacity="1"
     stroke-width="3"
     stroke-linecap="butt"
     stroke-linejoin="miter"
     stroke="rgb(0%, 0%, 0%)"
     stroke-opacity="1"
     stroke-miterlimit="4"
     d="M 82.511859 19.177736 C 82.511859 20.31038 82.397028 21.427365 82.177807 22.533912 C 81.958586 23.640458 81.634973 24.710468 81.20175 25.754379 C 80.768526 26.798291 80.241351 27.784788 79.615004 28.724308 C 78.988657 29.663829 78.273577 30.530275 77.480204 31.328868 C 76.681612 32.12746 75.809946 32.83732 74.875645 33.463667 C 73.936124 34.090014 72.944408 34.622409 71.905716 35.050413 C 70.861804 35.483636 69.786575 35.807249 68.680029 36.03169 C 67.573482 36.250912 66.456497 36.360522 65.329072 36.360522 C 64.201647 36.360522 63.084662 36.250912 61.978116 36.03169 C 60.871569 35.807249 59.79634 35.483636 58.757648 35.050413 C 57.713736 34.622409 56.72202 34.090014 55.787719 33.463667 C 54.848199 32.83732 53.981752 32.12746 53.183159 31.328868 C 52.384567 30.530275 51.674707 29.663829 51.04314 28.724308 C 50.416793 27.784788 49.889618 26.798291 49.456395 25.754379 C 49.028391 24.710468 48.699559 23.640458 48.480337 22.533912 C 48.261116 21.427365 48.151505 20.31038 48.151505 19.177736 C 48.151505 18.050311 48.261116 16.933325 48.480337 15.826779 C 48.699559 14.720233 49.028391 13.650223 49.456395 12.606311 C 49.889618 11.5624 50.416793 10.575903 51.04314 9.636383 C 51.674707 8.696862 52.384567 7.830415 53.183159 7.031823 C 53.981752 6.233231 54.848199 5.523371 55.787719 4.897024 C 56.72202 4.270676 57.713736 3.738282 58.757648 3.310278 C 59.79634 2.877054 60.871569 2.548222 61.978116 2.329001 C 63.084662 2.109779 64.201647 2.000169 65.329072 2.000169 C 66.456497 2.000169 67.573482 2.109779 68.680029 2.329001 C 69.786575 2.548222 70.861804 2.877054 71.905716 3.310278 C 72.944408 3.738282 73.936124 4.270676 74.875645 4.897024 C 75.809946 5.523371 76.681612 6.233231 77.480204 7.031823 C 78.273577 7.830415 78.988657 8.696862 79.615004 9.636383 C 80.241351 10.575903 80.768526 11.5624 81.20175 12.606311 C 81.634973 13.650223 81.958586 14.720233 82.177807 15.826779 C 82.397028 16.933325 82.511859 18.050311 82.511859 19.177736 Z M 82.511859 19.177736 "
     transform="matrix(0.748387, 0, 0, 0.748387, 0.374194, 0.374194)"
     id="path60" />
  <g
     clip-path="url(#clip-5)"
     id="g64">
    <path
       fill="none"
       stroke-width="3"
       stroke-linecap="butt"
       stroke-linejoin="miter"
       stroke="#0080f0"
       stroke-opacity="1"
       stroke-miterlimit="10"
       d="m 110.84884,71.232393 c -5.00033,-5.464878 -5.00033,-14.31203 0,-19.771688 4.9899,-5.459658 13.08022,-5.459658 18.08055,0 3.23091,-3.528421 7.93895,-4.911604 12.34948,-3.622374 4.41052,1.299671 7.86065,5.062972 9.04027,9.891064 1.17962,4.822872 -0.0783,9.969357 -3.3092,13.502998 l -18.08055,19.766468 z m 0,0"
       transform="matrix(0.748387,0,0,0.748387,0.374194,0.374194)"
       id="path62" />
  </g>
</svg>
